<?xml version="1.0" encoding="UTF-8" standalone="no"?>
<!-- Created with Inkscape (http://www.inkscape.org/) -->
<svg
   xmlns:dc="http://purl.org/dc/elements/1.1/"
   xmlns:cc="http://creativecommons.org/ns#"
   xmlns:rdf="http://www.w3.org/1999/02/22-rdf-syntax-ns#"
   xmlns:svg="http://www.w3.org/2000/svg"
   xmlns="http://www.w3.org/2000/svg"
   xmlns:xlink="http://www.w3.org/1999/xlink"
   xmlns:sodipodi="http://sodipodi.sourceforge.net/DTD/sodipodi-0.dtd"
   xmlns:inkscape="http://www.inkscape.org/namespaces/inkscape"
   sodipodi:docname="commflag.svg"
   sodipodi:docbase="/home/tigert/cvs/freedesktop.org/tango-icon-theme/scalable/actions"
   inkscape:version="0.46"
   sodipodi:version="0.32"
   id="svg11300"
   height="48px"
   width="48px"
   inkscape:output_extension="org.inkscape.output.svg.inkscape">
  <defs
     id="defs3">
    <inkscape:perspective
       sodipodi:type="inkscape:persp3d"
       inkscape:vp_x="0 : 24 : 1"
       inkscape:vp_y="0 : 1000 : 0"
       inkscape:vp_z="48 : 24 : 1"
       inkscape:persp3d-origin="24 : 16 : 1"
       id="perspective47" />
    <linearGradient
       id="linearGradient2846">
      <stop
         id="stop2848"
         offset="0.0000000"
         style="stop-color:#8a8a8a;stop-opacity:1.0000000;" />
      <stop
         id="stop2850"
         offset="1.0000000"
         style="stop-color:#484848;stop-opacity:1.0000000;" />
    </linearGradient>
    <linearGradient
       id="linearGradient2366">
      <stop
         id="stop2368"
         offset="0"
         style="stop-color:#ffffff;stop-opacity:1;" />
      <stop
         style="stop-color:#ffffff;stop-opacity:0.21904762;"
         offset="0.50000000"
         id="stop2374" />
      <stop
         id="stop2370"
         offset="1.0000000"
         style="stop-color:#ffffff;stop-opacity:1.0000000;" />
    </linearGradient>
    <linearGradient
       inkscape:collect="always"
       id="linearGradient4487">
      <stop
         style="stop-color:#ffffff;stop-opacity:1;"
         offset="0"
         id="stop4489" />
      <stop
         style="stop-color:#ffffff;stop-opacity:0;"
         offset="1"
         id="stop4491" />
    </linearGradient>
    <linearGradient
       inkscape:collect="always"
       id="linearGradient4477">
      <stop
         style="stop-color:#000000;stop-opacity:1;"
         offset="0"
         id="stop4479" />
      <stop
         style="stop-color:#000000;stop-opacity:0;"
         offset="1"
         id="stop4481" />
    </linearGradient>
    <linearGradient
       id="linearGradient4467">
      <stop
         style="stop-color:#ffffff;stop-opacity:1;"
         offset="0"
         id="stop4469" />
      <stop
         style="stop-color:#ffffff;stop-opacity:0.24761905;"
         offset="1.0000000"
         id="stop4471" />
    </linearGradient>
    <linearGradient
       id="linearGradient4454">
      <stop
         style="stop-color:#729fcf;stop-opacity:0.20784314;"
         offset="0.0000000"
         id="stop4456" />
      <stop
         style="stop-color:#729fcf;stop-opacity:0.67619050;"
         offset="1.0000000"
         id="stop4458" />
    </linearGradient>
    <linearGradient
       id="linearGradient4440">
      <stop
         style="stop-color:#7d7d7d;stop-opacity:1;"
         offset="0"
         id="stop4442" />
      <stop
         id="stop4448"
         offset="0.50000000"
         style="stop-color:#b1b1b1;stop-opacity:1.0000000;" />
      <stop
         style="stop-color:#686868;stop-opacity:1.0000000;"
         offset="1.0000000"
         id="stop4444" />
    </linearGradient>
    <linearGradient
       inkscape:collect="always"
       xlink:href="#linearGradient4440"
       id="linearGradient4446"
       x1="30.656250"
       y1="34.000000"
       x2="33.218750"
       y2="31.062500"
       gradientUnits="userSpaceOnUse"
       gradientTransform="matrix(1.334593,0,0,1.291292,-6.973842,-7.460658)" />
    <radialGradient
       inkscape:collect="always"
       xlink:href="#linearGradient4454"
       id="radialGradient4460"
       cx="18.240929"
       cy="21.817987"
       fx="18.240929"
       fy="21.817987"
       r="8.3085051"
       gradientUnits="userSpaceOnUse" />
    <radialGradient
       inkscape:collect="always"
       xlink:href="#linearGradient4467"
       id="radialGradient4473"
       cx="15.414371"
       cy="13.078408"
       fx="15.414371"
       fy="13.078408"
       r="6.6562500"
       gradientTransform="matrix(2.592963,0,0,2.252104,-25.05975,-18.941)"
       gradientUnits="userSpaceOnUse" />
    <radialGradient
       inkscape:collect="always"
       xlink:href="#linearGradient4487"
       id="radialGradient4493"
       cx="24.130018"
       cy="37.967922"
       fx="24.130018"
       fy="37.967922"
       r="16.528622"
       gradientTransform="matrix(1.000000,0.000000,0.000000,0.237968,3.152859e-15,28.93278)"
       gradientUnits="userSpaceOnUse" />
    <linearGradient
       gradientUnits="userSpaceOnUse"
       y2="25.743469"
       x2="17.500893"
       y1="13.602121"
       x1="18.292673"
       id="linearGradient2372"
       xlink:href="#linearGradient2366"
       inkscape:collect="always" />
    <radialGradient
       r="16.528622"
       fy="37.967922"
       fx="24.130018"
       cy="37.967922"
       cx="24.130018"
       gradientTransform="matrix(1.000000,0.000000,0.000000,0.237968,-2.471981e-16,28.93278)"
       gradientUnits="userSpaceOnUse"
       id="radialGradient2842"
       xlink:href="#linearGradient4477"
       inkscape:collect="always" />
    <linearGradient
       gradientUnits="userSpaceOnUse"
       y2="30.557772"
       x2="31.335964"
       y1="26.580296"
       x1="27.366341"
       id="linearGradient2852"
       xlink:href="#linearGradient2846"
       inkscape:collect="always" />
    <linearGradient
       gradientTransform="translate(0,2)"
       gradientUnits="userSpaceOnUse"
       y2="32.133045"
       x2="26.625"
       y1="32.133045"
       x1="43.6875"
       id="linearGradient7144"
       xlink:href="#linearGradient7138"
       inkscape:collect="always" />
    <linearGradient
       gradientUnits="userSpaceOnUse"
       y2="25.772396"
       x2="29.049412"
       y1="12.75"
       x1="23.816254"
       id="linearGradient7093"
       xlink:href="#linearGradient7087"
       inkscape:collect="always" />
    <radialGradient
       gradientUnits="userSpaceOnUse"
       gradientTransform="matrix(1,0,0,0.663934,0,9.061528)"
       r="21.566757"
       fy="26.963573"
       fx="23.157747"
       cy="26.963573"
       cx="23.157747"
       id="radialGradient7085"
       xlink:href="#linearGradient7079"
       inkscape:collect="always" />
    <linearGradient
       gradientTransform="matrix(0.884878,0,0,0.884878,5.318113,5.943159)"
       gradientUnits="userSpaceOnUse"
       y2="34.140205"
       x2="40.820396"
       y1="35.24506"
       x1="46.54464"
       id="linearGradient7075"
       xlink:href="#linearGradient7069"
       inkscape:collect="always" />
    <linearGradient
       gradientUnits="userSpaceOnUse"
       y2="-4.5986342"
       x2="21.107563"
       y1="31.867859"
       x1="21.03167"
       id="linearGradient7060"
       xlink:href="#linearGradient7054"
       inkscape:collect="always" />
    <linearGradient
       id="linearGradient7054"
       inkscape:collect="always">
      <stop
         id="stop7056"
         offset="0"
         style="stop-color:#ffffff;stop-opacity:1;" />
      <stop
         id="stop7058"
         offset="1"
         style="stop-color:#ffffff;stop-opacity:0;" />
    </linearGradient>
    <radialGradient
       gradientTransform="translate(1.971678,9.220141)"
       inkscape:collect="always"
       xlink:href="#aigrd4"
       id="radialGradient6540"
       gradientUnits="userSpaceOnUse"
       cx="20.655508"
       cy="24.735121"
       fx="20.655508"
       fy="24.735121"
       r="14.1515" />
    <radialGradient
       gradientUnits="userSpaceOnUse"
       fy="22.6138"
       fx="9.3418"
       r="14.1515"
       cy="22.6138"
       cx="9.3418"
       id="aigrd4">
      <stop
         id="stop6452"
         style="stop-color:#767676"
         offset="0" />
      <stop
         id="stop6454"
         style="stop-color:#484848"
         offset="1" />
    </radialGradient>
    <linearGradient
       id="linearGradient7069"
       inkscape:collect="always">
      <stop
         id="stop7071"
         offset="0"
         style="stop-color:#888a85;stop-opacity:1;" />
      <stop
         id="stop7073"
         offset="1"
         style="stop-color:#888a85;stop-opacity:0;" />
    </linearGradient>
    <linearGradient
       id="linearGradient7079"
       inkscape:collect="always">
      <stop
         id="stop7081"
         offset="0"
         style="stop-color:#000000;stop-opacity:1;" />
      <stop
         id="stop7083"
         offset="1"
         style="stop-color:#000000;stop-opacity:0;" />
    </linearGradient>
    <linearGradient
       id="linearGradient7087">
      <stop
         id="stop7089"
         offset="0"
         style="stop-color:#888a85;stop-opacity:1;" />
      <stop
         id="stop7091"
         offset="1"
         style="stop-color:#b8b9b6;stop-opacity:1;" />
    </linearGradient>
    <linearGradient
       id="linearGradient7138"
       inkscape:collect="always">
      <stop
         id="stop7140"
         offset="0"
         style="stop-color:#ffffff;stop-opacity:1;" />
      <stop
         id="stop7142"
         offset="1"
         style="stop-color:#ffffff;stop-opacity:0;" />
    </linearGradient>
    <inkscape:perspective
       id="perspective40"
       inkscape:persp3d-origin="24 : 16 : 1"
       inkscape:vp_z="48 : 24 : 1"
       inkscape:vp_y="0 : 1000 : 0"
       inkscape:vp_x="0 : 24 : 1"
       sodipodi:type="inkscape:persp3d" />
  </defs>
  <sodipodi:namedview
     stroke="#3465a4"
     inkscape:window-y="94"
     inkscape:window-x="239"
     inkscape:window-height="754"
     inkscape:window-width="1002"
     inkscape:showpageshadow="false"
     inkscape:document-units="px"
     inkscape:grid-bbox="true"
     showgrid="false"
     inkscape:current-layer="layer1"
     inkscape:cy="23.07052"
     inkscape:cx="10.828473"
     inkscape:zoom="11.313708"
     inkscape:pageshadow="2"
     inkscape:pageopacity="0.0"
     borderopacity="0.25490196"
     bordercolor="#666666"
     pagecolor="#ffffff"
     id="base"
     fill="#729fcf" />
  <metadata
     id="metadata4">
    <rdf:RDF>
      <cc:Work
         rdf:about="">
        <dc:format>image/svg+xml</dc:format>
        <dc:type
           rdf:resource="http://purl.org/dc/dcmitype/StillImage" />
        <dc:creator>
          <cc:Agent>
            <dc:title>Jakub Steiner</dc:title>
          </cc:Agent>
        </dc:creator>
        <dc:source>http://jimmac.musichall.cz</dc:source>
        <cc:license
           rdf:resource="http://creativecommons.org/licenses/publicdomain/" />
      </cc:Work>
      <cc:License
         rdf:about="http://creativecommons.org/licenses/publicdomain/">
        <cc:permits
           rdf:resource="http://creativecommons.org/ns#Reproduction" />
        <cc:permits
           rdf:resource="http://creativecommons.org/ns#Distribution" />
        <cc:permits
           rdf:resource="http://creativecommons.org/ns#DerivativeWorks" />
      </cc:License>
    </rdf:RDF>
  </metadata>
  <g
     inkscape:groupmode="layer"
     inkscape:label="Layer 1"
     id="layer1">
    <g
       inkscape:label="Layer 1"
       id="g2693"
       transform="translate(-3.0591863,-7.0370713)"
       inkscape:export-filename="/usr/share/mythtv/themes/bando-wide/icons/commflagged.png"
       inkscape:export-xdpi="90.932861"
       inkscape:export-ydpi="90.932861">
      <path
         transform="translate(1.237437,0.762563)"
         inkscape:r_cy="true"
         inkscape:r_cx="true"
         d="M 44.724504,26.963573 A 21.566757,14.318913 0 1 1 1.5909901,26.963573 A 21.566757,14.318913 0 1 1 44.724504,26.963573 z"
         sodipodi:ry="14.318913"
         sodipodi:rx="21.566757"
         sodipodi:cy="26.963573"
         sodipodi:cx="23.157747"
         id="path7077"
         style="opacity:0.70329674;fill:url(#radialGradient7085);fill-opacity:1;fill-rule:evenodd;stroke:none;stroke-width:1;stroke-linecap:round;stroke-linejoin:round;marker:none;marker-start:none;marker-mid:none;marker-end:none;stroke-miterlimit:4;stroke-dasharray:none;stroke-dashoffset:0;stroke-opacity:1;visibility:visible;display:inline;overflow:visible"
         sodipodi:type="arc" />
      <path
         sodipodi:type="arc"
         style="opacity:1;fill:#a1a39f;fill-opacity:1;fill-rule:evenodd;stroke:#6d6f6a;stroke-width:0.7190817;stroke-linecap:round;stroke-linejoin:round;marker:none;marker-start:none;marker-mid:none;marker-end:none;stroke-miterlimit:4;stroke-dasharray:none;stroke-dashoffset:0;stroke-opacity:1;visibility:visible;display:inline;overflow:visible"
         id="path7028"
         sodipodi:cx="25.75"
         sodipodi:cy="21"
         sodipodi:rx="14.75"
         sodipodi:ry="8.25"
         d="M 40.5,21 A 14.75,8.25 0 1 1 11,21 A 14.75,8.25 0 1 1 40.5,21 z"
         inkscape:r_cx="true"
         inkscape:r_cy="true"
         transform="matrix(1.254237,0,0,1.541926,-9.79661,-6.279528)" />
      <path
         transform="matrix(0.764011,0,0,1.001814,2.310475,2.543083)"
         inkscape:r_cy="true"
         inkscape:r_cx="true"
         d="M 40.5,21 A 14.75,8.25 0 1 1 11,21 A 14.75,8.25 0 1 1 40.5,21 z"
         sodipodi:ry="8.25"
         sodipodi:rx="14.75"
         sodipodi:cy="21"
         sodipodi:cx="25.75"
         id="path7042"
         style="opacity:1;fill:#555753;fill-opacity:1;fill-rule:evenodd;stroke:none;stroke-width:1.11522388;stroke-linecap:round;stroke-linejoin:round;marker:none;marker-start:none;marker-mid:none;marker-end:none;stroke-miterlimit:4;stroke-dasharray:none;stroke-dashoffset:0;stroke-opacity:1;visibility:visible;display:inline;overflow:visible"
         sodipodi:type="arc" />
      <path
         sodipodi:nodetypes="czccc"
         inkscape:r_cy="true"
         inkscape:r_cx="true"
         id="path6456"
         d="M 46.025804,41.226233 C 46.025804,41.226233 37.701909,37.489226 32.369805,37.959515 C 26.686793,38.460754 17.193028,38.796952 13.471708,32.920175 C 29.269805,37.684641 36.558698,29.774427 47.251087,34.22969 C 47.251087,34.22969 46.025804,41.226233 46.025804,41.226233 z"
         style="fill:url(#radialGradient6540);fill-rule:nonzero;stroke:#3b3d39;stroke-miterlimit:4;stroke-opacity:1" />
      <path
         sodipodi:type="arc"
         style="opacity:1;fill:url(#linearGradient7093);fill-opacity:1;fill-rule:evenodd;stroke:#757972;stroke-width:1.23408842;stroke-linecap:round;stroke-linejoin:round;marker:none;marker-start:none;marker-mid:none;marker-end:none;stroke-miterlimit:4;stroke-dasharray:none;stroke-dashoffset:0;stroke-opacity:1;visibility:visible;display:inline;overflow:visible"
         id="path7026"
         sodipodi:cx="25.75"
         sodipodi:cy="21"
         sodipodi:rx="14.75"
         sodipodi:ry="8.25"
         d="M 40.5,21 A 14.75,8.25 0 1 1 11,21 A 14.75,8.25 0 1 1 40.5,21 z"
         inkscape:r_cx="true"
         inkscape:r_cy="true"
         transform="matrix(0.760969,0,0,0.986663,2.905048,0.584267)" />
      <path
         inkscape:r_cy="true"
         inkscape:r_cx="true"
         id="path7012"
         d="M 21.09375,7.71875 C 11.536229,8.2444238 4.0000001,14.13337 4,21.25 C 4,28.711046 12.288003,34.781251 22.5,34.78125 C 32.711998,34.78125 41,28.711045 41,21.25 C 41,13.788954 32.711998,7.71875 22.5,7.71875 C 22.460109,7.71875 22.414832,7.7185655 22.375,7.71875 C 22.136944,7.7198528 21.892094,7.7111092 21.65625,7.71875 C 21.541092,7.7224809 21.4271,7.7134779 21.3125,7.71875 C 21.236995,7.7222235 21.169006,7.7146108 21.09375,7.71875 z M 19.71875,9.90625 C 19.782003,9.9011431 19.842341,9.9097202 19.90625,9.90625 C 20.040354,9.8989684 20.175794,9.90625 20.3125,9.90625 C 23.228892,9.9062502 25.59375,11.608453 25.59375,13.6875 C 25.59375,15.766547 23.228891,17.4375 20.3125,17.4375 C 17.396109,17.4375 15.03125,15.766547 15.03125,13.6875 C 15.03125,11.752352 17.083204,10.119037 19.71875,9.90625 z M 31.21875,14.5 C 31.285397,14.494037 31.338935,14.504252 31.40625,14.5 C 31.523002,14.492625 31.631386,14.502149 31.75,14.5 C 31.798199,14.499127 31.826509,14.5 31.875,14.5 C 34.978453,14.5 37.5,16.314203 37.5,18.53125 C 37.5,20.748296 34.978454,22.53125 31.875,22.53125 C 28.771546,22.531251 26.25,20.748297 26.25,18.53125 C 26.249999,16.483247 28.441783,14.748443 31.21875,14.5 z M 12,17.65625 C 12.217826,17.638427 12.463035,17.65625 12.6875,17.65625 C 15.879889,17.65625 18.46875,19.498598 18.46875,21.78125 C 18.46875,24.063902 15.879889,25.90625 12.6875,25.90625 C 9.4951118,25.90625 6.90625,24.063902 6.90625,21.78125 C 6.90625,19.659098 9.1198541,17.891914 12,17.65625 z M 23.53125,22.78125 C 23.555225,22.778464 23.56969,22.783841 23.59375,22.78125 C 23.596499,22.781133 23.622453,22.781217 23.625,22.78125 C 23.627553,22.781295 23.653493,22.781349 23.65625,22.78125 C 23.662492,22.781356 23.684306,22.781365 23.6875,22.78125 C 23.713653,22.781429 23.755011,22.780867 23.78125,22.78125 C 23.78446,22.781173 23.806268,22.781167 23.8125,22.78125 C 24.053476,22.761472 24.28293,22.78125 24.53125,22.78125 C 28.062916,22.78125 30.9375,24.810811 30.9375,27.34375 C 30.9375,29.87669 28.062916,31.9375 24.53125,31.9375 C 20.999584,31.9375 18.125,29.876689 18.125,27.34375 C 18.125,25.061781 20.486444,23.135039 23.53125,22.78125 z"
         style="opacity:1;fill:#d3d7cf;fill-opacity:1;fill-rule:evenodd;stroke:#888a85;stroke-width:1;stroke-linecap:round;stroke-linejoin:round;marker:none;marker-start:none;marker-mid:none;marker-end:none;stroke-miterlimit:4;stroke-dasharray:none;stroke-dashoffset:0;stroke-opacity:1;visibility:visible;display:inline;overflow:visible" />
      <path
         transform="matrix(0.950533,0,0,0.9375,1.450995,3.320621)"
         inkscape:r_cy="true"
         inkscape:r_cx="true"
         d="M 40.65864,19.008621 A 18.473166,13.435029 0 1 1 3.7123089,19.008621 A 18.473166,13.435029 0 1 1 40.65864,19.008621 z"
         sodipodi:ry="13.435029"
         sodipodi:rx="18.473166"
         sodipodi:cy="19.008621"
         sodipodi:cx="22.185474"
         id="path7044"
         style="opacity:1;fill:none;fill-opacity:1;fill-rule:evenodd;stroke:url(#linearGradient7060);stroke-width:1.05932879;stroke-linecap:round;stroke-linejoin:round;marker:none;marker-start:none;marker-mid:none;marker-end:none;stroke-miterlimit:4;stroke-dasharray:none;stroke-dashoffset:0;stroke-opacity:1;visibility:visible;display:inline;overflow:visible"
         sodipodi:type="arc" />
      <path
         sodipodi:nodetypes="ccccc"
         inkscape:r_cy="true"
         inkscape:r_cx="true"
         id="path7067"
         d="M 46.875,34.493906 L 45.793438,40.543896 C 43.18442,39.668459 41.611389,38.97574 38.722272,38.287036 L 39.054101,33.374389 C 40.952632,33.173083 43.91738,33.516123 46.875,34.493906 z"
         style="opacity:1;fill:url(#linearGradient7075);fill-opacity:1;fill-rule:evenodd;stroke:none;stroke-width:1;stroke-linecap:round;stroke-linejoin:round;marker:none;marker-start:none;marker-mid:none;marker-end:none;stroke-miterlimit:4;stroke-dasharray:none;stroke-dashoffset:0;stroke-opacity:1;visibility:visible;display:inline;overflow:visible" />
      <path
         sodipodi:nodetypes="cccc"
         inkscape:r_cy="true"
         inkscape:r_cx="true"
         id="path7136"
         d="M 46.875,34.3125 L 46.6875,35.1875 C 38.582601,32.158614 31.121435,34.960781 23.3125,35.1875 C 33.923553,34.304921 37.402743,31.471843 46.875,34.3125 z"
         style="opacity:0.70329674;fill:url(#linearGradient7144);fill-opacity:1;fill-rule:evenodd;stroke:none;stroke-width:1;stroke-linecap:round;stroke-linejoin:round;marker:none;marker-start:none;marker-mid:none;marker-end:none;stroke-miterlimit:4;stroke-dasharray:none;stroke-dashoffset:0;stroke-opacity:1;visibility:visible;display:inline;overflow:visible" />
    </g>
    <g
       id="g1772"
       transform="matrix(-0.7669637,0.1070335,0.1070335,0.7669637,47.229274,10.20904)"
       inkscape:export-filename="/usr/share/mythtv/themes/bando-wide/icons/commflagged.png"
       inkscape:export-xdpi="90.932861"
       inkscape:export-ydpi="90.932861">
      <path
         sodipodi:nodetypes="csscccscccscczzzz"
         id="path2844"
         d="M 18.627569,3.1435548 C 10.488439,3.1435548 3.8827682,9.7492259 3.8827682,17.888356 C 3.8827682,26.027486 10.488439,32.633158 18.627569,32.633158 C 22.107124,32.633158 25.17857,31.248765 27.701292,29.230511 C 27.495915,30.237392 27.623257,31.265879 28.457436,31.990436 L 39.42152,41.517846 C 40.654936,42.589175 42.508982,42.448806 43.58031,41.215389 C 44.651638,39.981971 44.511269,38.127927 43.277853,37.056599 L 32.313769,27.529188 C 31.642242,26.945909 30.820891,26.773219 30.007531,26.886466 C 31.994231,24.374044 33.37237,21.337663 33.37237,17.888356 C 33.37237,9.7492259 26.766699,3.1435548 18.627569,3.1435548 z M 18.551954,4.3697381 C 26.191413,4.3697381 31.843729,9.1586886 31.843729,17.661513 C 31.843729,26.336626 26.027039,30.953288 18.551954,30.953288 C 11.249005,30.953288 5.2601806,25.475196 5.2601806,17.661513 C 5.2601806,9.6774061 11.084819,4.369738 18.551954,4.3697381 z"
         style="opacity:1;fill:#dcdcdc;fill-opacity:1;fill-rule:evenodd;stroke:url(#linearGradient2852);stroke-width:2.58265877;stroke-linecap:round;stroke-linejoin:miter;marker:none;marker-start:none;marker-mid:none;marker-end:none;stroke-miterlimit:10;stroke-dasharray:none;stroke-dashoffset:0;stroke-opacity:1;visibility:visible;display:inline;overflow:visible" />
      <path
         style="opacity:1;fill:#dcdcdc;fill-opacity:1;fill-rule:evenodd;stroke:none;stroke-width:1.00000036;stroke-linecap:round;stroke-linejoin:miter;marker:none;marker-start:none;marker-mid:none;marker-end:none;stroke-miterlimit:10;stroke-dasharray:none;stroke-dashoffset:0;stroke-opacity:1;visibility:visible;display:inline;overflow:visible"
         d="M 18.602905,3.0803551 C 10.437465,3.0803551 3.8104408,9.7073791 3.8104408,17.872819 C 3.8104408,26.038259 10.437465,32.665283 18.602905,32.665283 C 22.093708,32.665283 25.175082,31.276416 27.70596,29.251638 C 27.499919,30.261774 27.627672,31.293585 28.464547,32.020484 L 39.464073,41.578691 C 40.701476,42.653483 42.561515,42.512661 43.636306,41.275256 C 44.711097,40.037852 44.570274,38.177814 43.332871,37.103023 L 32.333346,27.544815 C 31.659648,26.959651 30.835642,26.786402 30.019653,26.900016 C 32.012775,24.379472 33.395369,21.333276 33.395369,17.872819 C 33.395369,9.7073791 26.768345,3.0803551 18.602905,3.0803551 z M 18.527046,6.2664243 C 24.808154,6.2664245 29.905864,11.364135 29.905864,17.645243 C 29.905864,23.926351 24.808154,29.024061 18.527046,29.024061 C 12.245938,29.024061 7.1482276,23.926351 7.1482276,17.645243 C 7.1482278,11.364135 12.245938,6.2664243 18.527046,6.2664243 z"
         id="path4430" />
      <path
         style="opacity:1;fill:url(#linearGradient4446);fill-opacity:1;fill-rule:evenodd;stroke:none;stroke-width:1;stroke-linecap:round;stroke-linejoin:miter;marker:none;marker-start:none;marker-mid:none;marker-end:none;stroke-miterlimit:10;stroke-dasharray:none;stroke-dashoffset:0;stroke-opacity:1;visibility:visible;display:inline;overflow:visible"
         d="M 39.507004,41.57769 C 39.028332,39.304503 40.904334,36.766268 43.091057,36.789315 C 43.091057,36.789315 32.33069,27.531204 32.33069,27.531204 C 29.385899,27.474498 28.061188,29.80382 28.553876,32.131126 L 39.507004,41.57769 z"
         id="path4438"
         sodipodi:nodetypes="ccccc" />
      <path
         sodipodi:type="arc"
         style="opacity:1;fill:none;fill-opacity:1;fill-rule:evenodd;stroke:url(#linearGradient2372);stroke-width:1.03659296;stroke-linecap:round;stroke-linejoin:miter;marker:none;marker-start:none;marker-mid:none;marker-end:none;stroke-miterlimit:10;stroke-dasharray:none;stroke-dashoffset:0;stroke-opacity:1;visibility:visible;display:inline;overflow:visible"
         id="path4450"
         sodipodi:cx="17.500893"
         sodipodi:cy="18.920233"
         sodipodi:rx="11.048544"
         sodipodi:ry="11.048544"
         d="M 28.549437,18.920233 A 11.048544,11.048544 0 1 1 6.4523487,18.920233 A 11.048544,11.048544 0 1 1 28.549437,18.920233 z"
         transform="matrix(1.245743,0,0,1.245743,-3.425346,-6.177033)" />
      <rect
         style="opacity:0.43315507;fill:none;fill-opacity:1;fill-rule:evenodd;stroke:#ffffff;stroke-width:1.29136884;stroke-linecap:round;stroke-linejoin:miter;marker:none;marker-start:none;marker-mid:none;marker-end:none;stroke-miterlimit:10;stroke-dasharray:none;stroke-dashoffset:0;stroke-opacity:1;visibility:visible;display:inline;overflow:visible"
         id="rect4495"
         width="19.048439"
         height="4.4404783"
         x="40.373337"
         y="0.14086054"
         rx="2.7591314"
         ry="2.4379466"
         transform="matrix(0.752986,0.658037,-0.648902,0.760872,0,0)" />
      <path
         sodipodi:type="arc"
         style="fill:url(#radialGradient4460);fill-opacity:1;fill-rule:evenodd;stroke:#3063a3;stroke-width:0.92329222;stroke-linecap:round;stroke-linejoin:miter;marker:none;marker-start:none;marker-mid:none;marker-end:none;stroke-miterlimit:10;stroke-dashoffset:0;stroke-opacity:1;visibility:visible"
         id="path4452"
         sodipodi:cx="17.589281"
         sodipodi:cy="18.478292"
         sodipodi:rx="8.3085051"
         sodipodi:ry="8.3085051"
         d="M 25.897786,18.478292 A 8.3085051,8.3085051 0 1 1 9.280776,18.478292 A 8.3085051,8.3085051 0 1 1 25.897786,18.478292 z"
         transform="matrix(1.398614,0,0,1.398614,-6.224338,-8.298958)" />
      <path
         style="opacity:0.83422457;fill:url(#radialGradient4473);fill-opacity:1;fill-rule:evenodd;stroke:none;stroke-width:1;stroke-linecap:round;stroke-linejoin:miter;marker:none;marker-start:none;marker-mid:none;marker-end:none;stroke-miterlimit:10;stroke-dasharray:none;stroke-dashoffset:0;stroke-opacity:1;visibility:visible;display:inline;overflow:visible"
         d="M 18.156915,7.3966938 C 12.949325,7.3966938 8.7323681,11.613651 8.7323681,16.821241 C 8.7323681,18.325216 9.1526753,19.709014 9.77954,20.971144 C 11.03192,21.432757 12.362297,21.746827 13.774307,21.746827 C 19.945262,21.746827 24.873589,16.88519 25.254413,10.809698 C 23.523449,8.7641668 21.044374,7.3966938 18.156915,7.3966938 z"
         id="path4462" />
    </g>
  </g>
</svg>
